#!OML:ASF X:\für Bonn\!DataBase\2005_08_10_Bjorn_Final\c3d\bjorn.ASF
:FULLY-SPECIFIED
:DEGREES
61
root 0.535235 14.8602 3.98118 -174.665 0.759974 -180.329
lowerback 12.1844 0.222548 2.26014
upperback 9.90883 2.07999 -0.513301
thorax 3.66831 1.83577 -1.94149
lowerneck -19.0848 -1.01514 3.83188
upperneck 5.71597 -1.89935 -5.68019
head 4.68246 -1.32875 -2.58851
rclavicle -1.78906e-015 6.16232e-015
rhumerus 79.6702 0.820226 -85.4603
rradius 4.85796
rwrist 59.0755
rhand -23.2335 11.9016
rfingers 7.12502
rthumb 3.21763 -18.0539
lclavicle -1.78906e-015 6.16232e-015
lhumerus 77.878 -10.9322 85.4724
lradius 5.40964
lwrist -66.6864
lhand -28.7127 -6.25429
lfingers 7.12502
lthumb -2.07423 23.7154
rfemur -57.4762 -11.9403 17.143
rtibia 94.9282
rfoot -34.211 12.6632
rtoes -26.5658
lfemur -57.5119 3.45159 -19.8311
ltibia 97.6211
lfoot -29.6724 5.00248
ltoes -29.4685
62
root 0.532903 14.6371 3.99669 -174.743 0.611526 -180.403
lowerback 12.8119 0.0746838 2.25064
upperback 10.1142 1.9838 -0.515783
thorax 3.54652 1.82387 -1.94497
lowerneck -19.6668 -0.982044 3.7795
upperneck 5.67621 -1.88673 -5.63991
head 4.76138 -1.33729 -2.57531
rclavicle -3.57812e-014 9.93923e-015
rhumerus 80.1819 0.86737 -85.342
rradius 4.66321
rwrist 58.8981
rhand -23.0916 11.9046
rfingers 7.12502
rthumb 3.35462 -18.0487
lclavicle -3.57812e-014 9.93923e-015
lhumerus 78.1616 -10.8214 85.4039
lradius 5.56951
lwrist -66.4462
lhand -28.5894 -6.29326
lfingers 7.12502
lthumb -1.95516 23.6775
rfemur -59.0058 -12.5705 16.8619
rtibia 97.3969
rfoot -34.1778 13.7286
rtoes -26.6203
lfemur -58.9274 3.84176 -19.8246
ltibia 99.9304
lfoot -29.8378 4.29672
ltoes -30.4908
63
root 0.531108 14.4129 4.01095 -174.832 0.473913 -180.456
lowerback 13.3952 -0.0646187 2.27777
upperback 10.3181 1.90196 -0.528408
thorax 3.45116 1.82175 -1.97824
lowerneck -20.1138 -0.953128 3.74668
upperneck 5.60054 -1.87974 -5.59852
head 4.8073 -1.34532 -2.56276
rclavicle 2.66371e-014 2.5842e-015
rhumerus 80.6012 0.884893 -85.2452
rradius 4.621
rwrist 58.687
rhand -22.8774 11.8601
rfingers 7.12502
rthumb 3.56154 -18.0899
lclavicle 2.66371e-014 2.5842e-015
lhumerus 78.4897 -10.7342 85.3165
lradius 5.63075
lwrist -66.2046
lhand -28.4464 -6.29903
lfingers 7.12502
lthumb -1.81701 23.673
rfemur -60.5098 -13.1862 16.5416
rtibia 99.8235
rfoot -33.9585 15.1592
rtoes -25.9829
lfemur -60.305 4.28803 -19.7772
ltibia 102.192
lfoot -29.966 3.89688
ltoes -32.3242
64
root 0.530582 14.1878 4.02489 -174.97 0.344122 -180.514
lowerback 14.0024 -0.198009 2.26675
upperback 10.5122 1.8258 -0.521736
thorax 3.33279 1.81963 -1.97067
lowerneck -20.5576 -0.922236 3.7314
upperneck 5.58725 -1.86489 -5.60863
head 4.87197 -1.35219 -2.56944
rclavicle -3.20043e-014 1.19271e-014
rhumerus 80.9342 0.921376 -85.1302
rradius 4.64547
rwrist 58.4497
rhand -22.6669 11.8719
rfingers 7.12502
rthumb 3.7648 -18.0746
lclavicle -3.20043e-014 1.19271e-014
lhumerus 78.7327 -10.6309 85.2636
lradius 5.68128
lwrist -65.9304
lhand -28.3348 -6.30405
lfingers 7.12502
lthumb -1.70931 23.6688
rfemur -61.9728 -13.7967 16.1475
rtibia 102.221
rfoot -33.6162 16.7673
rtoes -25.2003
lfemur -61.6101 4.78618 -19.713
ltibia 104.411
lfoot -30.1367 3.54874
ltoes -34.3887
65
root 0.529626 13.9619 4.03685 -175.127 0.224869 -180.566
lowerback 14.6146 -0.332588 2.28878
upperback 10.7065 1.75536 -0.538922
thorax 3.21616 1.82432 -2.00649
lowerneck -21.2096 -0.884256 3.67287
upperneck 5.7215 -1.83668 -5.53558
head 5.01611 -1.3495 -2.54651
rclavicle 8.34896e-015 -4.57205e-015
rhumerus 81.2402 0.923459 -85.0431
rradius 4.69942
rwrist 58.1374
rhand -22.4721 11.8781
rfingers 7.12502
rthumb 3.95291 -18.065
lclavicle 8.34896e-015 -4.57205e-015
lhumerus 78.9377 -10.5622 85.1883
lradius 5.74548
lwrist -65.6403
lhand -28.2637 -6.28038
lfingers 7.12502
lthumb -1.64058 23.6931
rfemur -63.4104 -14.4607 15.7622
rtibia 104.569
rfoot -33.427 17.9151
rtoes -25.903
lfemur -62.8843 5.35064 -19.6545
ltibia 106.6
lfoot -30.3529 3.16741
ltoes -36.1291
66
root 0.528564 13.7351 4.04765 -175.325 0.148723 -180.637
lowerback 15.24 -0.452839 2.2629
upperback 10.9103 1.70445 -0.546958
thorax 3.10446 1.83806 -2.00732
lowerneck -21.8801 -0.84685 3.59539
upperneck 5.86401 -1.80361 -5.48
head 5.16568 -1.34698 -2.52602
rclavicle -6.36111e-015 -1.78906e-015
rhumerus 81.5107 0.965642 -84.9415
rradius 4.77217
rwrist 57.7703
rhand -22.363 11.8479
rfingers 7.12502
rthumb 4.05821 -18.0932
lclavicle -6.36111e-015 -1.78906e-015
lhumerus 79.1583 -10.4635 85.1333
lradius 5.73689
lwrist -65.2978
lhand -28.3341 -6.34879
lfingers 7.12502
lthumb -1.70858 23.6241
rfemur -64.8067 -15.1576 15.3466
rtibia 106.88
rfoot -33.1966 18.9995
rtoes -26.9736
lfemur -64.1049 5.97622 -19.6099
ltibia 108.769
lfoot -30.6179 2.36575
ltoes -36.8464
67
root 0.526691 13.5077 4.0579 -175.593 0.0680293 -180.691
lowerback 15.9604 -0.58363 2.28028
upperback 11.0901 1.6493 -0.571386
thorax 2.92083 1.85249 -2.05256
lowerneck -22.4323 -0.818765 3.54574
upperneck 5.96215 -1.78695 -5.41974
head 5.28188 -1.34884 -2.5075
rclavicle -6.55989e-015 -7.95139e-015
rhumerus 81.669 0.989006 -84.8696
rradius 4.89539
rwrist 57.3663
rhand -22.2324 11.865
rfingers 7.12502
rthumb 4.18433 -18.0736
lclavicle -6.55989e-015 -7.95139e-015
lhumerus 79.3326 -10.3943 85.0635
lradius 5.68151
lwrist -65.0637
lhand -28.4841 -6.31531
lfingers 7.12502
lthumb -1.85344 23.6564
rfemur -66.0763 -15.9401 14.9204
rtibia 109.132
rfoot -32.8444 20.3378
rtoes -27.3421
lfemur -65.2466 6.60381 -19.5287
ltibia 110.921
lfoot -30.9095 1.13961
ltoes -36.6022
68
root 0.525371 13.2776 4.06642 -175.909 -0.000698302 -180.763
lowerback 16.7045 1.99346 3.06357
upperback 11.3087 0.876224 -0.163811
thorax 2.82055 -0.268335 -2.05855
lowerneck -22.8932 -0.791779 3.45418
upperneck 5.96265 -1.76533 -5.34865
head 5.35358 -1.34863 -2.47555
rclavicle -1.63003e-014 3.57812e-015
rhumerus 81.8264 1.02575 -84.7735
rradius 4.98358
rwrist 56.9316
rhand -22.1155 11.8742
rfingers 7.12502
rthumb 4.29722 -18.0622
lclavicle -1.63003e-014 3.57812e-015
lhumerus 79.518 -10.2967 85.0147
lradius 5.57982
lwrist -64.7262
lhand -28.6514 -6.40194
lfingers 7.12502
lthumb -2.01508 23.5683
rfemur -67.2837 -16.8229 14.447
rtibia 111.343
rfoot -32.4599 21.8752
rtoes -27.2196
lfemur -66.3511 7.28167 -19.4797
ltibia 113.072
lfoot -31.1314 -0.0561351
ltoes -36.2619
69
root 0.523007 13.0438 4.07259 -176.275 -0.0628943 -180.793
lowerback 17.451 1.98932 3.17099
upperback 11.4983 0.800036 -0.14325
thorax 2.64514 -0.344084 -2.09459
lowerneck -23.2309 -0.774829 3.37097
upperneck 5.86621 -1.76094 -5.2764
head 5.37454 -1.35548 -2.44312
rclavicle -1.39149e-015 9.14409e-015
rhumerus 81.9274 1.02801 -84.6715
rradius 5.07614
rwrist 56.3855
rhand -21.9736 11.9367
rfingers 7.12502
rthumb 4.43425 -17.9969
lclavicle -1.39149e-015 9.14409e-015
lhumerus 79.6749 -10.2259 84.9769
lradius 5.43544
lwrist -64.4288
lhand -28.8081 -6.45425
lfingers 7.12502
lthumb -2.16641 23.5145
rfemur -68.4107 -17.8148 14.0064
rtibia 113.513
rfoot -32.1904 23.3976
rtoes -27.234
lfemur -67.4159 8.02656 -19.3852
ltibia 115.218
lfoot -31.2516 -1.37251
ltoes -35.6701
70
root 0.521821 12.8055 4.07734 -176.691 -0.122731 -180.862
lowerback 18.2166 1.98726 3.21922
upperback 11.6831 0.717627 -0.130147
thorax 2.45516 -0.427474 -2.10281
lowerneck -23.5086 -0.749863 3.31174
upperneck 5.72797 -1.75114 -5.22456
head 5.37285 -1.36038 -2.41905
rclavicle -5.1684e-015 -1.27222e-014
rhumerus 81.9892 1.07774 -84.5876
rradius 5.15138
rwrist 55.8869
rhand -21.7915 11.9723
rfingers 7.12502
rthumb 4.61008 -17.9576
lclavicle -5.1684e-015 -1.27222e-014
lhumerus 79.7945 -10.1424 84.9357
lradius 5.26843
lwrist -64.1473
lhand -28.993 -6.55324
lfingers 7.12502
lthumb -2.34492 23.4136
rfemur -69.5009 -18.96 13.5372
rtibia 115.674
rfoot -31.9373 24.8522
rtoes -27.2893
lfemur -68.4568 8.84474 -19.3333
ltibia 117.372
lfoot -31.2783 -2.69619
ltoes -35.0622
71
root 0.519817 12.5638 4.08047 -177.136 -0.184532 -180.913
lowerback 19 1.98171 3.30409
upperback 11.8464 0.640496 -0.113911
thorax 2.23787 -0.506037 -2.12735
lowerneck -23.7666 -0.734795 3.20815
upperneck 5.5861 -1.74439 -5.14028
head 5.36718 -1.36494 -2.37738
rclavicle 1.19271e-014 -3.97569e-016
rhumerus 81.9996 1.11817 -84.4983
rradius 5.2022
rwrist 55.4506
rhand -21.5921 11.9886
rfingers 7.12502
rthumb 4.80269 -17.937
lclavicle 1.19271e-014 -3.97569e-016
lhumerus 79.8303 -10.0838 84.9141
lradius 5.16621
lwrist -63.9207
lhand -29.0186 -6.61842
lfingers 7.12502
lthumb -2.36965 23.3482
rfemur -70.5703 -20.2603 13.103
rtibia 117.814
rfoot -31.6341 26.355
rtoes -27.0504
lfemur -69.49 9.7654 -19.2636
ltibia 119.528
lfoot -31.2173 -4.03053
ltoes -34.5428
